<?xml version="1.0" standalone="no"?>
<!DOCTYPE svg PUBLIC "-//W3C//DTD SVG 20010904//EN"
 "http://www.w3.org/TR/2001/REC-SVG-20010904/DTD/svg10.dtd">
<svg version="1.0" xmlns="http://www.w3.org/2000/svg"
 width="300.000000pt" height="300.000000pt" viewBox="0 0 300.000000 300.000000"
 preserveAspectRatio="xMidYMid meet">
<metadata>
Created by potrace 1.14, written by Peter Selinger 2001-2017
</metadata>
<g transform="translate(0.000000,300.000000) scale(0.100000,-0.100000)"
fill="#000000" stroke="none">
<path d="M452 2980 c-109 -29 -187 -74 -272 -160 -87 -86 -131 -163 -160 -276
-19 -74 -20 -114 -20 -1044 0 -930 1 -970 20 -1044 28 -112 73 -190 160 -277
85 -87 160 -130 278 -160 72 -18 119 -19 1042 -19 930 0 970 1 1044 20 112 28
190 73 277 160 87 85 130 160 160 278 18 72 19 119 19 1042 0 930 -1 970 -20
1044 -29 113 -73 190 -160 276 -86 87 -163 131 -276 160 -74 19 -113 20 -1048
19 -923 0 -975 -1 -1044 -19z m1198 -388 c30 -31 28 -16 50 -282 50 -581 175
-811 485 -890 75 -19 258 -40 353 -40 46 0 58 -4 83 -29 54 -55 34 -144 -39
-172 -52 -20 -349 9 -482 48 -174 50 -305 140 -396 273 -27 39 -50 68 -51 63
-1 -4 -14 -66 -28 -136 -139 -697 -519 -1067 -1098 -1067 -138 0 -177 23 -177
105 0 81 40 105 172 105 534 1 831 354 935 1114 12 89 17 221 20 501 l4 380
26 27 c38 40 103 40 143 0z"/>
</g>
</svg>
